<svg xmlns="http://www.w3.org/2000/svg" viewBox="0 0 1090.00 544.60">
  <style>
    .key-bg { fill: #f5f5f5; stroke: #d4d4d4; stroke-width: 1; }
    .key-index { fill: #171717; font-family: ui-monospace, SFMono-Regular, "SF Mono", Menlo, Consolas, "Liberation Mono", monospace; font-weight: 700; text-anchor: middle; dominant-baseline: central; }
    .key-part { font-family: system-ui, -apple-system, BlinkMacSystemFont, "Segoe UI", Roboto, sans-serif; text-anchor: middle; dominant-baseline: central; }
    @media (prefers-color-scheme: dark) {
      .key-bg { fill: #2a2a2a; stroke: #404040; }
      .key-index { fill: #e5e5e5; }
    }
    .key-bg.part-0 { stroke: #f59e0b; }
    .key-part.part-0 { fill: #f59e0b; }
    .key-bg.part-1 { stroke: #14b8a6; }
    .key-part.part-1 { fill: #14b8a6; }
  </style>
  <g>
    <path class="key-bg part-0" d="M 26.00,48.25 L 84.00,48.25 Q 88.00,48.25 88.00,52.25 L 88.00,110.25 Q 88.00,114.25 84.00,114.25 L 26.00,114.25 Q 22.00,114.25 22.00,110.25 L 22.00,52.25 Q 22.00,48.25 26.00,48.25 Z" />
    <path class="key-bg part-0" d="M 96.00,48.25 L 154.00,48.25 Q 158.00,48.25 158.00,52.25 L 158.00,110.25 Q 158.00,114.25 154.00,114.25 L 96.00,114.25 Q 92.00,114.25 92.00,110.25 L 92.00,52.25 Q 92.00,48.25 96.00,48.25 Z" />
    <path class="key-bg part-0" d="M 166.00,30.75 L 224.00,30.75 Q 228.00,30.75 228.00,34.75 L 228.00,92.75 Q 228.00,96.75 224.00,96.75 L 166.00,96.75 Q 162.00,96.75 162.00,92.75 L 162.00,34.75 Q 162.00,30.75 166.00,30.75 Z" />
    <path class="key-bg part-0" d="M 236.00,22.00 L 294.00,22.00 Q 298.00,22.00 298.00,26.00 L 298.00,84.00 Q 298.00,88.00 294.00,88.00 L 236.00,88.00 Q 232.00,88.00 232.00,84.00 L 232.00,26.00 Q 232.00,22.00 236.00,22.00 Z" />
    <path class="key-bg part-0" d="M 306.00,30.75 L 364.00,30.75 Q 368.00,30.75 368.00,34.75 L 368.00,92.75 Q 368.00,96.75 364.00,96.75 L 306.00,96.75 Q 302.00,96.75 302.00,92.75 L 302.00,34.75 Q 302.00,30.75 306.00,30.75 Z" />
    <path class="key-bg part-0" d="M 376.00,39.50 L 434.00,39.50 Q 438.00,39.50 438.00,43.50 L 438.00,101.50 Q 438.00,105.50 434.00,105.50 L 376.00,105.50 Q 372.00,105.50 372.00,101.50 L 372.00,43.50 Q 372.00,39.50 376.00,39.50 Z" />
    <path class="key-bg part-1" d="M 656.00,39.50 L 714.00,39.50 Q 718.00,39.50 718.00,43.50 L 718.00,101.50 Q 718.00,105.50 714.00,105.50 L 656.00,105.50 Q 652.00,105.50 652.00,101.50 L 652.00,43.50 Q 652.00,39.50 656.00,39.50 Z" />
    <path class="key-bg part-1" d="M 726.00,30.75 L 784.00,30.75 Q 788.00,30.75 788.00,34.75 L 788.00,92.75 Q 788.00,96.75 784.00,96.75 L 726.00,96.75 Q 722.00,96.75 722.00,92.75 L 722.00,34.75 Q 722.00,30.75 726.00,30.75 Z" />
    <path class="key-bg part-1" d="M 796.00,22.00 L 854.00,22.00 Q 858.00,22.00 858.00,26.00 L 858.00,84.00 Q 858.00,88.00 854.00,88.00 L 796.00,88.00 Q 792.00,88.00 792.00,84.00 L 792.00,26.00 Q 792.00,22.00 796.00,22.00 Z" />
    <path class="key-bg part-1" d="M 866.00,30.75 L 924.00,30.75 Q 928.00,30.75 928.00,34.75 L 928.00,92.75 Q 928.00,96.75 924.00,96.75 L 866.00,96.75 Q 862.00,96.75 862.00,92.75 L 862.00,34.75 Q 862.00,30.75 866.00,30.75 Z" />
    <path class="key-bg part-1" d="M 936.00,48.25 L 994.00,48.25 Q 998.00,48.25 998.00,52.25 L 998.00,110.25 Q 998.00,114.25 994.00,114.25 L 936.00,114.25 Q 932.00,114.25 932.00,110.25 L 932.00,52.25 Q 932.00,48.25 936.00,48.25 Z" />
    <path class="key-bg part-1" d="M 1006.00,48.25 L 1064.00,48.25 Q 1068.00,48.25 1068.00,52.25 L 1068.00,110.25 Q 1068.00,114.25 1064.00,114.25 L 1006.00,114.25 Q 1002.00,114.25 1002.00,110.25 L 1002.00,52.25 Q 1002.00,48.25 1006.00,48.25 Z" />
    <path class="key-bg part-0" d="M 26.00,118.25 L 84.00,118.25 Q 88.00,118.25 88.00,122.25 L 88.00,180.25 Q 88.00,184.25 84.00,184.25 L 26.00,184.25 Q 22.00,184.25 22.00,180.25 L 22.00,122.25 Q 22.00,118.25 26.00,118.25 Z" />
    <path class="key-bg part-0" d="M 96.00,118.25 L 154.00,118.25 Q 158.00,118.25 158.00,122.25 L 158.00,180.25 Q 158.00,184.25 154.00,184.25 L 96.00,184.25 Q 92.00,184.25 92.00,180.25 L 92.00,122.25 Q 92.00,118.25 96.00,118.25 Z" />
    <path class="key-bg part-0" d="M 166.00,100.75 L 224.00,100.75 Q 228.00,100.75 228.00,104.75 L 228.00,162.75 Q 228.00,166.75 224.00,166.75 L 166.00,166.75 Q 162.00,166.75 162.00,162.75 L 162.00,104.75 Q 162.00,100.75 166.00,100.75 Z" />
    <path class="key-bg part-0" d="M 236.00,92.00 L 294.00,92.00 Q 298.00,92.00 298.00,96.00 L 298.00,154.00 Q 298.00,158.00 294.00,158.00 L 236.00,158.00 Q 232.00,158.00 232.00,154.00 L 232.00,96.00 Q 232.00,92.00 236.00,92.00 Z" />
    <path class="key-bg part-0" d="M 306.00,100.75 L 364.00,100.75 Q 368.00,100.75 368.00,104.75 L 368.00,162.75 Q 368.00,166.75 364.00,166.75 L 306.00,166.75 Q 302.00,166.75 302.00,162.75 L 302.00,104.75 Q 302.00,100.75 306.00,100.75 Z" />
    <path class="key-bg part-0" d="M 376.00,109.50 L 434.00,109.50 Q 438.00,109.50 438.00,113.50 L 438.00,171.50 Q 438.00,175.50 434.00,175.50 L 376.00,175.50 Q 372.00,175.50 372.00,171.50 L 372.00,113.50 Q 372.00,109.50 376.00,109.50 Z" />
    <path class="key-bg part-1" d="M 656.00,109.50 L 714.00,109.50 Q 718.00,109.50 718.00,113.50 L 718.00,171.50 Q 718.00,175.50 714.00,175.50 L 656.00,175.50 Q 652.00,175.50 652.00,171.50 L 652.00,113.50 Q 652.00,109.50 656.00,109.50 Z" />
    <path class="key-bg part-1" d="M 726.00,100.75 L 784.00,100.75 Q 788.00,100.75 788.00,104.75 L 788.00,162.75 Q 788.00,166.75 784.00,166.75 L 726.00,166.75 Q 722.00,166.75 722.00,162.75 L 722.00,104.75 Q 722.00,100.75 726.00,100.75 Z" />
    <path class="key-bg part-1" d="M 796.00,92.00 L 854.00,92.00 Q 858.00,92.00 858.00,96.00 L 858.00,154.00 Q 858.00,158.00 854.00,158.00 L 796.00,158.00 Q 792.00,158.00 792.00,154.00 L 792.00,96.00 Q 792.00,92.00 796.00,92.00 Z" />
    <path class="key-bg part-1" d="M 866.00,100.75 L 924.00,100.75 Q 928.00,100.75 928.00,104.75 L 928.00,162.75 Q 928.00,166.75 924.00,166.75 L 866.00,166.75 Q 862.00,166.75 862.00,162.75 L 862.00,104.75 Q 862.00,100.75 866.00,100.75 Z" />
    <path class="key-bg part-1" d="M 936.00,118.25 L 994.00,118.25 Q 998.00,118.25 998.00,122.25 L 998.00,180.25 Q 998.00,184.25 994.00,184.25 L 936.00,184.25 Q 932.00,184.25 932.00,180.25 L 932.00,122.25 Q 932.00,118.25 936.00,118.25 Z" />
    <path class="key-bg part-1" d="M 1006.00,118.25 L 1064.00,118.25 Q 1068.00,118.25 1068.00,122.25 L 1068.00,180.25 Q 1068.00,184.25 1064.00,184.25 L 1006.00,184.25 Q 1002.00,184.25 1002.00,180.25 L 1002.00,122.25 Q 1002.00,118.25 1006.00,118.25 Z" />
    <path class="key-bg part-0" d="M 26.00,188.25 L 84.00,188.25 Q 88.00,188.25 88.00,192.25 L 88.00,250.25 Q 88.00,254.25 84.00,254.25 L 26.00,254.25 Q 22.00,254.25 22.00,250.25 L 22.00,192.25 Q 22.00,188.25 26.00,188.25 Z" />
    <path class="key-bg part-0" d="M 96.00,188.25 L 154.00,188.25 Q 158.00,188.25 158.00,192.25 L 158.00,250.25 Q 158.00,254.25 154.00,254.25 L 96.00,254.25 Q 92.00,254.25 92.00,250.25 L 92.00,192.25 Q 92.00,188.25 96.00,188.25 Z" />
    <path class="key-bg part-0" d="M 166.00,170.75 L 224.00,170.75 Q 228.00,170.75 228.00,174.75 L 228.00,232.75 Q 228.00,236.75 224.00,236.75 L 166.00,236.75 Q 162.00,236.75 162.00,232.75 L 162.00,174.75 Q 162.00,170.75 166.00,170.75 Z" />
    <path class="key-bg part-0" d="M 236.00,162.00 L 294.00,162.00 Q 298.00,162.00 298.00,166.00 L 298.00,224.00 Q 298.00,228.00 294.00,228.00 L 236.00,228.00 Q 232.00,228.00 232.00,224.00 L 232.00,166.00 Q 232.00,162.00 236.00,162.00 Z" />
    <path class="key-bg part-0" d="M 306.00,170.75 L 364.00,170.75 Q 368.00,170.75 368.00,174.75 L 368.00,232.75 Q 368.00,236.75 364.00,236.75 L 306.00,236.75 Q 302.00,236.75 302.00,232.75 L 302.00,174.75 Q 302.00,170.75 306.00,170.75 Z" />
    <path class="key-bg part-0" d="M 376.00,179.50 L 434.00,179.50 Q 438.00,179.50 438.00,183.50 L 438.00,241.50 Q 438.00,245.50 434.00,245.50 L 376.00,245.50 Q 372.00,245.50 372.00,241.50 L 372.00,183.50 Q 372.00,179.50 376.00,179.50 Z" />
    <path class="key-bg part-1" d="M 656.00,179.50 L 714.00,179.50 Q 718.00,179.50 718.00,183.50 L 718.00,241.50 Q 718.00,245.50 714.00,245.50 L 656.00,245.50 Q 652.00,245.50 652.00,241.50 L 652.00,183.50 Q 652.00,179.50 656.00,179.50 Z" />
    <path class="key-bg part-1" d="M 726.00,170.75 L 784.00,170.75 Q 788.00,170.75 788.00,174.75 L 788.00,232.75 Q 788.00,236.75 784.00,236.75 L 726.00,236.75 Q 722.00,236.75 722.00,232.75 L 722.00,174.75 Q 722.00,170.75 726.00,170.75 Z" />
    <path class="key-bg part-1" d="M 796.00,162.00 L 854.00,162.00 Q 858.00,162.00 858.00,166.00 L 858.00,224.00 Q 858.00,228.00 854.00,228.00 L 796.00,228.00 Q 792.00,228.00 792.00,224.00 L 792.00,166.00 Q 792.00,162.00 796.00,162.00 Z" />
    <path class="key-bg part-1" d="M 866.00,170.75 L 924.00,170.75 Q 928.00,170.75 928.00,174.75 L 928.00,232.75 Q 928.00,236.75 924.00,236.75 L 866.00,236.75 Q 862.00,236.75 862.00,232.75 L 862.00,174.75 Q 862.00,170.75 866.00,170.75 Z" />
    <path class="key-bg part-1" d="M 936.00,188.25 L 994.00,188.25 Q 998.00,188.25 998.00,192.25 L 998.00,250.25 Q 998.00,254.25 994.00,254.25 L 936.00,254.25 Q 932.00,254.25 932.00,250.25 L 932.00,192.25 Q 932.00,188.25 936.00,188.25 Z" />
    <path class="key-bg part-1" d="M 1006.00,188.25 L 1064.00,188.25 Q 1068.00,188.25 1068.00,192.25 L 1068.00,250.25 Q 1068.00,254.25 1064.00,254.25 L 1006.00,254.25 Q 1002.00,254.25 1002.00,250.25 L 1002.00,192.25 Q 1002.00,188.25 1006.00,188.25 Z" />
    <path class="key-bg part-0" d="M 26.00,258.25 L 84.00,258.25 Q 88.00,258.25 88.00,262.25 L 88.00,320.25 Q 88.00,324.25 84.00,324.25 L 26.00,324.25 Q 22.00,324.25 22.00,320.25 L 22.00,262.25 Q 22.00,258.25 26.00,258.25 Z" />
    <path class="key-bg part-0" d="M 96.00,258.25 L 154.00,258.25 Q 158.00,258.25 158.00,262.25 L 158.00,320.25 Q 158.00,324.25 154.00,324.25 L 96.00,324.25 Q 92.00,324.25 92.00,320.25 L 92.00,262.25 Q 92.00,258.25 96.00,258.25 Z" />
    <path class="key-bg part-0" d="M 166.00,240.75 L 224.00,240.75 Q 228.00,240.75 228.00,244.75 L 228.00,302.75 Q 228.00,306.75 224.00,306.75 L 166.00,306.75 Q 162.00,306.75 162.00,302.75 L 162.00,244.75 Q 162.00,240.75 166.00,240.75 Z" />
    <path class="key-bg part-0" d="M 236.00,232.00 L 294.00,232.00 Q 298.00,232.00 298.00,236.00 L 298.00,294.00 Q 298.00,298.00 294.00,298.00 L 236.00,298.00 Q 232.00,298.00 232.00,294.00 L 232.00,236.00 Q 232.00,232.00 236.00,232.00 Z" />
    <path class="key-bg part-0" d="M 306.00,240.75 L 364.00,240.75 Q 368.00,240.75 368.00,244.75 L 368.00,302.75 Q 368.00,306.75 364.00,306.75 L 306.00,306.75 Q 302.00,306.75 302.00,302.75 L 302.00,244.75 Q 302.00,240.75 306.00,240.75 Z" />
    <path class="key-bg part-0" d="M 376.00,249.50 L 434.00,249.50 Q 438.00,249.50 438.00,253.50 L 438.00,311.50 Q 438.00,315.50 434.00,315.50 L 376.00,315.50 Q 372.00,315.50 372.00,311.50 L 372.00,253.50 Q 372.00,249.50 376.00,249.50 Z" />
    <path class="key-bg part-1" d="M 656.00,249.50 L 714.00,249.50 Q 718.00,249.50 718.00,253.50 L 718.00,311.50 Q 718.00,315.50 714.00,315.50 L 656.00,315.50 Q 652.00,315.50 652.00,311.50 L 652.00,253.50 Q 652.00,249.50 656.00,249.50 Z" />
    <path class="key-bg part-1" d="M 726.00,240.75 L 784.00,240.75 Q 788.00,240.75 788.00,244.75 L 788.00,302.75 Q 788.00,306.75 784.00,306.75 L 726.00,306.75 Q 722.00,306.75 722.00,302.75 L 722.00,244.75 Q 722.00,240.75 726.00,240.75 Z" />
    <path class="key-bg part-1" d="M 796.00,232.00 L 854.00,232.00 Q 858.00,232.00 858.00,236.00 L 858.00,294.00 Q 858.00,298.00 854.00,298.00 L 796.00,298.00 Q 792.00,298.00 792.00,294.00 L 792.00,236.00 Q 792.00,232.00 796.00,232.00 Z" />
    <path class="key-bg part-1" d="M 866.00,240.75 L 924.00,240.75 Q 928.00,240.75 928.00,244.75 L 928.00,302.75 Q 928.00,306.75 924.00,306.75 L 866.00,306.75 Q 862.00,306.75 862.00,302.75 L 862.00,244.75 Q 862.00,240.75 866.00,240.75 Z" />
    <path class="key-bg part-1" d="M 936.00,258.25 L 994.00,258.25 Q 998.00,258.25 998.00,262.25 L 998.00,320.25 Q 998.00,324.25 994.00,324.25 L 936.00,324.25 Q 932.00,324.25 932.00,320.25 L 932.00,262.25 Q 932.00,258.25 936.00,258.25 Z" />
    <path class="key-bg part-1" d="M 1006.00,258.25 L 1064.00,258.25 Q 1068.00,258.25 1068.00,262.25 L 1068.00,320.25 Q 1068.00,324.25 1064.00,324.25 L 1006.00,324.25 Q 1002.00,324.25 1002.00,320.25 L 1002.00,262.25 Q 1002.00,258.25 1006.00,258.25 Z" />
    <path class="key-bg part-0" d="M 207.76,360.73 L 264.49,372.79 Q 268.41,373.62 267.57,377.54 L 255.52,434.27 Q 254.68,438.18 250.77,437.35 L 194.04,425.29 Q 190.13,424.46 190.96,420.55 L 203.02,363.81 Q 203.85,359.90 207.76,360.73 Z" />
    <path class="key-bg part-0" d="M 360.12,338.09 L 410.35,367.09 Q 413.82,369.09 411.82,372.55 L 382.82,422.78 Q 380.82,426.24 377.35,424.24 L 327.12,395.24 Q 323.66,393.24 325.66,389.78 L 354.66,339.55 Q 356.66,336.09 360.12,338.09 Z" />
    <path class="key-bg part-0" d="M 420.75,373.09 L 470.98,402.09 Q 474.44,404.09 472.44,407.55 L 443.44,457.78 Q 441.44,461.24 437.98,459.24 L 387.75,430.24 Q 384.28,428.24 386.28,424.78 L 415.28,374.55 Q 417.28,371.09 420.75,373.09 Z" />
    <path class="key-bg part-1" d="M 649.34,384.59 L 699.56,355.59 Q 703.03,353.59 705.03,357.05 L 734.03,407.28 Q 736.03,410.74 732.56,412.74 L 682.34,441.74 Q 678.87,443.74 676.87,440.28 L 647.87,390.05 Q 645.87,386.59 649.34,384.59 Z" />
    <path class="key-bg part-1" d="M 719.13,346.32 L 773.63,326.48 Q 777.39,325.11 778.76,328.87 L 798.60,383.37 Q 799.97,387.13 796.21,388.50 L 741.70,408.34 Q 737.95,409.71 736.58,405.95 L 716.74,351.44 Q 715.37,347.69 719.13,346.32 Z" />
    <path class="key-bg part-0" d="M 325.12,398.71 L 375.35,427.71 Q 378.82,429.71 376.82,433.17 L 347.82,483.40 Q 345.82,486.87 342.35,484.87 L 292.12,455.87 Q 288.66,453.87 290.66,450.40 L 319.66,400.17 Q 321.66,396.71 325.12,398.71 Z" />
    <path class="key-bg part-0" d="M 385.75,433.71 L 435.98,462.71 Q 439.44,464.71 437.44,468.17 L 408.44,518.40 Q 406.44,521.87 402.98,519.87 L 352.75,490.87 Q 349.28,488.87 351.28,485.40 L 380.28,435.17 Q 382.28,431.71 385.75,433.71 Z" />
    <path class="key-bg part-1" d="M 684.34,445.21 L 734.56,416.21 Q 738.03,414.21 740.03,417.67 L 769.03,467.90 Q 771.03,471.37 767.56,473.37 L 717.34,502.37 Q 713.87,504.37 711.87,500.90 L 682.87,450.67 Q 680.87,447.21 684.34,445.21 Z" />
  </g>
  <g>
    <text class="key-index" x="55.00" y="69.61" font-size="26">0</text>
    <text class="key-part part-0" x="55.00" y="96.89" font-size="18">left</text>
    <text class="key-index" x="125.00" y="69.61" font-size="26">1</text>
    <text class="key-part part-0" x="125.00" y="96.89" font-size="18">left</text>
    <text class="key-index" x="195.00" y="52.11" font-size="26">2</text>
    <text class="key-part part-0" x="195.00" y="79.39" font-size="18">left</text>
    <text class="key-index" x="265.00" y="43.36" font-size="26">3</text>
    <text class="key-part part-0" x="265.00" y="70.64" font-size="18">left</text>
    <text class="key-index" x="335.00" y="52.11" font-size="26">4</text>
    <text class="key-part part-0" x="335.00" y="79.39" font-size="18">left</text>
    <text class="key-index" x="405.00" y="60.86" font-size="26">5</text>
    <text class="key-part part-0" x="405.00" y="88.14" font-size="18">left</text>
    <text class="key-index" x="685.00" y="60.86" font-size="26">6</text>
    <text class="key-part part-1" x="685.00" y="88.14" font-size="18">right</text>
    <text class="key-index" x="755.00" y="52.11" font-size="26">7</text>
    <text class="key-part part-1" x="755.00" y="79.39" font-size="18">right</text>
    <text class="key-index" x="825.00" y="43.36" font-size="26">8</text>
    <text class="key-part part-1" x="825.00" y="70.64" font-size="18">right</text>
    <text class="key-index" x="895.00" y="52.11" font-size="26">9</text>
    <text class="key-part part-1" x="895.00" y="79.39" font-size="18">right</text>
    <text class="key-index" x="965.00" y="69.61" font-size="26">10</text>
    <text class="key-part part-1" x="965.00" y="96.89" font-size="18">right</text>
    <text class="key-index" x="1035.00" y="69.61" font-size="26">11</text>
    <text class="key-part part-1" x="1035.00" y="96.89" font-size="18">right</text>
    <text class="key-index" x="55.00" y="139.61" font-size="26">12</text>
    <text class="key-part part-0" x="55.00" y="166.89" font-size="18">left</text>
    <text class="key-index" x="125.00" y="139.61" font-size="26">13</text>
    <text class="key-part part-0" x="125.00" y="166.89" font-size="18">left</text>
    <text class="key-index" x="195.00" y="122.11" font-size="26">14</text>
    <text class="key-part part-0" x="195.00" y="149.39" font-size="18">left</text>
    <text class="key-index" x="265.00" y="113.36" font-size="26">15</text>
    <text class="key-part part-0" x="265.00" y="140.64" font-size="18">left</text>
    <text class="key-index" x="335.00" y="122.11" font-size="26">16</text>
    <text class="key-part part-0" x="335.00" y="149.39" font-size="18">left</text>
    <text class="key-index" x="405.00" y="130.86" font-size="26">17</text>
    <text class="key-part part-0" x="405.00" y="158.14" font-size="18">left</text>
    <text class="key-index" x="685.00" y="130.86" font-size="26">18</text>
    <text class="key-part part-1" x="685.00" y="158.14" font-size="18">right</text>
    <text class="key-index" x="755.00" y="122.11" font-size="26">19</text>
    <text class="key-part part-1" x="755.00" y="149.39" font-size="18">right</text>
    <text class="key-index" x="825.00" y="113.36" font-size="26">20</text>
    <text class="key-part part-1" x="825.00" y="140.64" font-size="18">right</text>
    <text class="key-index" x="895.00" y="122.11" font-size="26">21</text>
    <text class="key-part part-1" x="895.00" y="149.39" font-size="18">right</text>
    <text class="key-index" x="965.00" y="139.61" font-size="26">22</text>
    <text class="key-part part-1" x="965.00" y="166.89" font-size="18">right</text>
    <text class="key-index" x="1035.00" y="139.61" font-size="26">23</text>
    <text class="key-part part-1" x="1035.00" y="166.89" font-size="18">right</text>
    <text class="key-index" x="55.00" y="209.61" font-size="26">24</text>
    <text class="key-part part-0" x="55.00" y="236.89" font-size="18">left</text>
    <text class="key-index" x="125.00" y="209.61" font-size="26">25</text>
    <text class="key-part part-0" x="125.00" y="236.89" font-size="18">left</text>
    <text class="key-index" x="195.00" y="192.11" font-size="26">26</text>
    <text class="key-part part-0" x="195.00" y="219.39" font-size="18">left</text>
    <text class="key-index" x="265.00" y="183.36" font-size="26">27</text>
    <text class="key-part part-0" x="265.00" y="210.64" font-size="18">left</text>
    <text class="key-index" x="335.00" y="192.11" font-size="26">28</text>
    <text class="key-part part-0" x="335.00" y="219.39" font-size="18">left</text>
    <text class="key-index" x="405.00" y="200.86" font-size="26">29</text>
    <text class="key-part part-0" x="405.00" y="228.14" font-size="18">left</text>
    <text class="key-index" x="685.00" y="200.86" font-size="26">30</text>
    <text class="key-part part-1" x="685.00" y="228.14" font-size="18">right</text>
    <text class="key-index" x="755.00" y="192.11" font-size="26">31</text>
    <text class="key-part part-1" x="755.00" y="219.39" font-size="18">right</text>
    <text class="key-index" x="825.00" y="183.36" font-size="26">32</text>
    <text class="key-part part-1" x="825.00" y="210.64" font-size="18">right</text>
    <text class="key-index" x="895.00" y="192.11" font-size="26">33</text>
    <text class="key-part part-1" x="895.00" y="219.39" font-size="18">right</text>
    <text class="key-index" x="965.00" y="209.61" font-size="26">34</text>
    <text class="key-part part-1" x="965.00" y="236.89" font-size="18">right</text>
    <text class="key-index" x="1035.00" y="209.61" font-size="26">35</text>
    <text class="key-part part-1" x="1035.00" y="236.89" font-size="18">right</text>
    <text class="key-index" x="55.00" y="279.61" font-size="26">36</text>
    <text class="key-part part-0" x="55.00" y="306.89" font-size="18">left</text>
    <text class="key-index" x="125.00" y="279.61" font-size="26">37</text>
    <text class="key-part part-0" x="125.00" y="306.89" font-size="18">left</text>
    <text class="key-index" x="195.00" y="262.11" font-size="26">38</text>
    <text class="key-part part-0" x="195.00" y="289.39" font-size="18">left</text>
    <text class="key-index" x="265.00" y="253.36" font-size="26">39</text>
    <text class="key-part part-0" x="265.00" y="280.64" font-size="18">left</text>
    <text class="key-index" x="335.00" y="262.11" font-size="26">40</text>
    <text class="key-part part-0" x="335.00" y="289.39" font-size="18">left</text>
    <text class="key-index" x="405.00" y="270.86" font-size="26">41</text>
    <text class="key-part part-0" x="405.00" y="298.14" font-size="18">left</text>
    <text class="key-index" x="685.00" y="270.86" font-size="26">42</text>
    <text class="key-part part-1" x="685.00" y="298.14" font-size="18">right</text>
    <text class="key-index" x="755.00" y="262.11" font-size="26">43</text>
    <text class="key-part part-1" x="755.00" y="289.39" font-size="18">right</text>
    <text class="key-index" x="825.00" y="253.36" font-size="26">44</text>
    <text class="key-part part-1" x="825.00" y="280.64" font-size="18">right</text>
    <text class="key-index" x="895.00" y="262.11" font-size="26">45</text>
    <text class="key-part part-1" x="895.00" y="289.39" font-size="18">right</text>
    <text class="key-index" x="965.00" y="279.61" font-size="26">46</text>
    <text class="key-part part-1" x="965.00" y="306.89" font-size="18">right</text>
    <text class="key-index" x="1035.00" y="279.61" font-size="26">47</text>
    <text class="key-part part-1" x="1035.00" y="306.89" font-size="18">right</text>
    <text class="key-index" x="229.27" y="387.40" font-size="26" transform="rotate(12 229.27 399.04)">48</text>
    <text class="key-part part-0" x="229.27" y="414.68" font-size="18" transform="rotate(12 229.27 399.04)">left</text>
    <text class="key-index" x="368.74" y="369.53" font-size="26" transform="rotate(30 368.74 381.17)">49</text>
    <text class="key-part part-0" x="368.74" y="396.81" font-size="18" transform="rotate(30 368.74 381.17)">left</text>
    <text class="key-index" x="429.36" y="404.53" font-size="26" transform="rotate(30 429.36 416.17)">50</text>
    <text class="key-part part-0" x="429.36" y="431.81" font-size="18" transform="rotate(30 429.36 416.17)">left</text>
    <text class="key-index" x="690.95" y="387.03" font-size="26" transform="rotate(-30 690.95 398.67)">51</text>
    <text class="key-part part-1" x="690.95" y="414.31" font-size="18" transform="rotate(-30 690.95 398.67)">right</text>
    <text class="key-index" x="757.67" y="355.77" font-size="26" transform="rotate(-20 757.67 367.41)">52</text>
    <text class="key-part part-1" x="757.67" y="383.05" font-size="18" transform="rotate(-20 757.67 367.41)">right</text>
    <text class="key-index" x="333.74" y="430.15" font-size="26" transform="rotate(30 333.74 441.79)">53</text>
    <text class="key-part part-0" x="333.74" y="457.43" font-size="18" transform="rotate(30 333.74 441.79)">left</text>
    <text class="key-index" x="394.36" y="465.15" font-size="26" transform="rotate(30 394.36 476.79)">54</text>
    <text class="key-part part-0" x="394.36" y="492.43" font-size="18" transform="rotate(30 394.36 476.79)">left</text>
    <text class="key-index" x="725.95" y="447.65" font-size="26" transform="rotate(-30 725.95 459.29)">55</text>
    <text class="key-part part-1" x="725.95" y="474.93" font-size="18" transform="rotate(-30 725.95 459.29)">right</text>
  </g>
</svg>
